<mxfile host="65bd71144e">
    <diagram id="37s6CMcWRU31wefhjYVu" name="PÃ¡gina-1">
        <mxGraphModel dx="825" dy="479" grid="1" gridSize="10" guides="1" tooltips="1" connect="1" arrows="1" fold="1" page="1" pageScale="1" pageWidth="1600" pageHeight="1200" background="#ffffff" math="0" shadow="0">
            <root>
                <mxCell id="0"/>
                <mxCell id="1" parent="0"/>
                <mxCell id="20" style="rounded=0;orthogonalLoop=1;jettySize=auto;html=1;strokeColor=#000000;strokeWidth=2;endArrow=none;endFill=0;fontSize=15;exitX=0.5;exitY=0;exitDx=0;exitDy=0;" parent="1" source="2" target="70" edge="1">
                    <mxGeometry relative="1" as="geometry">
                        <mxPoint x="580" y="70" as="targetPoint"/>
                    </mxGeometry>
                </mxCell>
                <mxCell id="22" style="edgeStyle=none;rounded=0;orthogonalLoop=1;jettySize=auto;html=1;exitX=0.5;exitY=0;exitDx=0;exitDy=0;endArrow=none;endFill=0;strokeColor=#000000;strokeWidth=2;fontSize=15;" parent="1" source="2" target="14" edge="1">
                    <mxGeometry relative="1" as="geometry"/>
                </mxCell>
                <mxCell id="23" style="edgeStyle=none;rounded=0;orthogonalLoop=1;jettySize=auto;html=1;exitX=0.5;exitY=0;exitDx=0;exitDy=0;entryX=0;entryY=0.5;entryDx=0;entryDy=0;endArrow=none;endFill=0;strokeColor=#000000;strokeWidth=2;fontSize=15;" parent="1" source="2" target="17" edge="1">
                    <mxGeometry relative="1" as="geometry"/>
                </mxCell>
                <mxCell id="25" style="edgeStyle=none;rounded=0;orthogonalLoop=1;jettySize=auto;html=1;exitX=0.5;exitY=0;exitDx=0;exitDy=0;entryX=1;entryY=0.5;entryDx=0;entryDy=0;endArrow=none;endFill=0;strokeColor=#000000;strokeWidth=2;fontSize=15;" parent="1" source="2" target="13" edge="1">
                    <mxGeometry relative="1" as="geometry"/>
                </mxCell>
                <mxCell id="29" style="edgeStyle=none;rounded=0;orthogonalLoop=1;jettySize=auto;html=1;exitX=0.5;exitY=1;exitDx=0;exitDy=0;endArrow=none;endFill=0;strokeColor=#000000;strokeWidth=2;fontSize=15;" parent="1" source="2" target="16" edge="1">
                    <mxGeometry relative="1" as="geometry"/>
                </mxCell>
                <mxCell id="30" style="edgeStyle=none;rounded=0;orthogonalLoop=1;jettySize=auto;html=1;exitX=0.5;exitY=1;exitDx=0;exitDy=0;entryX=0;entryY=0;entryDx=0;entryDy=0;endArrow=none;endFill=0;strokeColor=#000000;strokeWidth=2;fontSize=15;" parent="1" source="2" target="15" edge="1">
                    <mxGeometry relative="1" as="geometry"/>
                </mxCell>
                <mxCell id="41" style="edgeStyle=none;rounded=0;orthogonalLoop=1;jettySize=auto;html=1;exitX=0;exitY=0.5;exitDx=0;exitDy=0;entryX=1;entryY=0.5;entryDx=0;entryDy=0;endArrow=none;endFill=0;strokeColor=#000000;strokeWidth=2;fontSize=15;" parent="1" source="2" target="40" edge="1">
                    <mxGeometry relative="1" as="geometry"/>
                </mxCell>
                <mxCell id="51" style="edgeStyle=none;rounded=0;orthogonalLoop=1;jettySize=auto;html=1;exitX=0.5;exitY=1;exitDx=0;exitDy=0;endArrow=none;endFill=0;strokeColor=#000000;strokeWidth=2;fontSize=15;" parent="1" source="2" target="50" edge="1">
                    <mxGeometry relative="1" as="geometry"/>
                </mxCell>
                <mxCell id="2" value="Contacto" style="whiteSpace=wrap;html=1;align=center;fontSize=15;fillColor=#e51400;strokeColor=#B20000;fontColor=#ffffff;" parent="1" vertex="1">
                    <mxGeometry x="520" y="200" width="120" height="40" as="geometry"/>
                </mxCell>
                <mxCell id="26" style="edgeStyle=none;rounded=0;orthogonalLoop=1;jettySize=auto;html=1;exitX=0.5;exitY=0;exitDx=0;exitDy=0;endArrow=none;endFill=0;strokeColor=#000000;strokeWidth=2;fontSize=15;" parent="1" source="3" target="6" edge="1">
                    <mxGeometry relative="1" as="geometry"/>
                </mxCell>
                <mxCell id="28" style="edgeStyle=none;rounded=0;orthogonalLoop=1;jettySize=auto;html=1;exitX=0.5;exitY=1;exitDx=0;exitDy=0;endArrow=none;endFill=0;strokeColor=#000000;strokeWidth=2;fontSize=15;" parent="1" source="3" target="10" edge="1">
                    <mxGeometry relative="1" as="geometry"/>
                </mxCell>
                <mxCell id="3" value="telefono" style="whiteSpace=wrap;html=1;align=center;fontSize=15;fillColor=#e51400;strokeColor=#B20000;fontColor=#ffffff;" parent="1" vertex="1">
                    <mxGeometry x="40" y="200" width="100" height="40" as="geometry"/>
                </mxCell>
                <mxCell id="33" style="edgeStyle=none;rounded=0;orthogonalLoop=1;jettySize=auto;html=1;exitX=1;exitY=0.5;exitDx=0;exitDy=0;entryX=0;entryY=0.5;entryDx=0;entryDy=0;endArrow=none;endFill=0;strokeColor=#000000;strokeWidth=2;fontSize=15;" parent="1" source="4" target="9" edge="1">
                    <mxGeometry relative="1" as="geometry"/>
                </mxCell>
                <mxCell id="34" style="edgeStyle=none;rounded=0;orthogonalLoop=1;jettySize=auto;html=1;exitX=0;exitY=0.5;exitDx=0;exitDy=0;entryX=1;entryY=0.5;entryDx=0;entryDy=0;endArrow=none;endFill=0;strokeColor=#000000;strokeWidth=2;fontSize=15;" parent="1" source="4" target="11" edge="1">
                    <mxGeometry relative="1" as="geometry"/>
                </mxCell>
                <mxCell id="4" value="direccion" style="whiteSpace=wrap;html=1;align=center;fontSize=15;fillColor=#e51400;strokeColor=#B20000;fontColor=#ffffff;" parent="1" vertex="1">
                    <mxGeometry x="530" y="520" width="100" height="40" as="geometry"/>
                </mxCell>
                <mxCell id="31" style="edgeStyle=none;rounded=0;orthogonalLoop=1;jettySize=auto;html=1;exitX=0.5;exitY=0;exitDx=0;exitDy=0;entryX=0.5;entryY=1;entryDx=0;entryDy=0;endArrow=none;endFill=0;strokeColor=#000000;strokeWidth=2;fontSize=15;" parent="1" source="5" target="8" edge="1">
                    <mxGeometry relative="1" as="geometry"/>
                </mxCell>
                <mxCell id="32" style="edgeStyle=none;rounded=0;orthogonalLoop=1;jettySize=auto;html=1;exitX=0.5;exitY=1;exitDx=0;exitDy=0;endArrow=none;endFill=0;strokeColor=#000000;strokeWidth=2;fontSize=15;" parent="1" source="5" target="12" edge="1">
                    <mxGeometry relative="1" as="geometry"/>
                </mxCell>
                <mxCell id="5" value="correo" style="whiteSpace=wrap;html=1;align=center;fontSize=15;fillColor=#e51400;strokeColor=#B20000;fontColor=#ffffff;" parent="1" vertex="1">
                    <mxGeometry x="1020" y="200" width="100" height="40" as="geometry"/>
                </mxCell>
                <mxCell id="6" value="number" style="ellipse;whiteSpace=wrap;html=1;align=center;fontStyle=4;fontSize=15;fillColor=#0050ef;strokeColor=#001DBC;fontColor=#ffffff;" parent="1" vertex="1">
                    <mxGeometry x="40" y="80" width="100" height="40" as="geometry"/>
                </mxCell>
                <mxCell id="8" value="email" style="ellipse;whiteSpace=wrap;html=1;align=center;fontStyle=4;fontSize=15;" parent="1" vertex="1">
                    <mxGeometry x="1020" y="80" width="100" height="40" as="geometry"/>
                </mxCell>
                <mxCell id="9" value="address" style="ellipse;whiteSpace=wrap;html=1;align=center;fontStyle=4;fontSize=15;fillColor=#0050ef;strokeColor=#001DBC;fontColor=#ffffff;" parent="1" vertex="1">
                    <mxGeometry x="720" y="520" width="100" height="40" as="geometry"/>
                </mxCell>
                <mxCell id="10" value="type" style="ellipse;whiteSpace=wrap;html=1;align=center;fontSize=15;fillColor=#0050ef;strokeColor=#001DBC;fontColor=#ffffff;" parent="1" vertex="1">
                    <mxGeometry x="40" y="320" width="100" height="40" as="geometry"/>
                </mxCell>
                <mxCell id="11" value="type" style="ellipse;whiteSpace=wrap;html=1;align=center;fontSize=15;fillColor=#0050ef;strokeColor=#001DBC;fontColor=#ffffff;" parent="1" vertex="1">
                    <mxGeometry x="340" y="520" width="100" height="40" as="geometry"/>
                </mxCell>
                <mxCell id="12" value="type" style="ellipse;whiteSpace=wrap;html=1;align=center;fontSize=15;" parent="1" vertex="1">
                    <mxGeometry x="1020" y="320" width="100" height="40" as="geometry"/>
                </mxCell>
                <mxCell id="13" value="name" style="ellipse;whiteSpace=wrap;html=1;align=center;fontSize=15;" parent="1" vertex="1">
                    <mxGeometry x="360" y="100" width="100" height="40" as="geometry"/>
                </mxCell>
                <mxCell id="14" value="fullname" style="ellipse;whiteSpace=wrap;html=1;align=center;fontSize=15;fillColor=#0050ef;strokeColor=#001DBC;fontColor=#ffffff;" parent="1" vertex="1">
                    <mxGeometry x="470" y="80" width="100" height="40" as="geometry"/>
                </mxCell>
                <mxCell id="15" value="photo" style="ellipse;whiteSpace=wrap;html=1;align=center;fontSize=15;" parent="1" vertex="1">
                    <mxGeometry x="650" y="250" width="100" height="40" as="geometry"/>
                </mxCell>
                <mxCell id="16" value="organization" style="ellipse;whiteSpace=wrap;html=1;align=center;fontSize=15;" parent="1" vertex="1">
                    <mxGeometry x="410" y="250" width="100" height="40" as="geometry"/>
                </mxCell>
                <mxCell id="17" value="title" style="ellipse;whiteSpace=wrap;html=1;align=center;fontSize=15;" parent="1" vertex="1">
                    <mxGeometry x="720" y="100" width="100" height="40" as="geometry"/>
                </mxCell>
                <mxCell id="42" style="edgeStyle=none;rounded=0;orthogonalLoop=1;jettySize=auto;html=1;exitX=0;exitY=0.5;exitDx=0;exitDy=0;endArrow=none;endFill=0;strokeColor=#000000;strokeWidth=2;fontSize=15;fontColor=#000000;" parent="1" source="40" target="3" edge="1">
                    <mxGeometry relative="1" as="geometry"/>
                </mxCell>
                <mxCell id="40" value="posee" style="shape=rhombus;perimeter=rhombusPerimeter;whiteSpace=wrap;html=1;align=center;fontSize=15;" parent="1" vertex="1">
                    <mxGeometry x="270" y="190" width="120" height="60" as="geometry"/>
                </mxCell>
                <mxCell id="45" style="edgeStyle=none;rounded=0;orthogonalLoop=1;jettySize=auto;html=1;entryX=1;entryY=0.5;entryDx=0;entryDy=0;endArrow=none;endFill=0;strokeColor=#000000;strokeWidth=2;fontSize=15;" parent="1" source="5" target="47" edge="1">
                    <mxGeometry relative="1" as="geometry">
                        <mxPoint x="1020" y="220" as="sourcePoint"/>
                    </mxGeometry>
                </mxCell>
                <mxCell id="46" style="edgeStyle=none;rounded=0;orthogonalLoop=1;jettySize=auto;html=1;exitX=0;exitY=0.5;exitDx=0;exitDy=0;endArrow=none;endFill=0;strokeColor=#000000;strokeWidth=2;fontSize=15;" parent="1" source="47" target="2" edge="1">
                    <mxGeometry relative="1" as="geometry">
                        <mxPoint x="640" y="220" as="targetPoint"/>
                    </mxGeometry>
                </mxCell>
                <mxCell id="47" value="posee" style="shape=rhombus;perimeter=rhombusPerimeter;whiteSpace=wrap;html=1;align=center;fontSize=15;" parent="1" vertex="1">
                    <mxGeometry x="770" y="190" width="120" height="60" as="geometry"/>
                </mxCell>
                <mxCell id="52" style="edgeStyle=none;rounded=0;orthogonalLoop=1;jettySize=auto;html=1;exitX=0.5;exitY=1;exitDx=0;exitDy=0;endArrow=none;endFill=0;strokeColor=#000000;strokeWidth=2;fontSize=15;" parent="1" source="50" target="4" edge="1">
                    <mxGeometry relative="1" as="geometry"/>
                </mxCell>
                <mxCell id="50" value="posee" style="shape=rhombus;perimeter=rhombusPerimeter;whiteSpace=wrap;html=1;align=center;fontSize=15;" parent="1" vertex="1">
                    <mxGeometry x="520" y="350" width="120" height="60" as="geometry"/>
                </mxCell>
                <mxCell id="54" value="*" style="text;strokeColor=none;fillColor=none;spacingLeft=4;spacingRight=4;overflow=hidden;rotatable=0;points=[[0,0.5],[1,0.5]];portConstraint=eastwest;fontSize=20;labelBackgroundColor=#FFFFFF;fontColor=#000000;" parent="1" vertex="1">
                    <mxGeometry x="160" y="180" width="40" height="30" as="geometry"/>
                </mxCell>
                <mxCell id="55" value="1" style="text;strokeColor=none;fillColor=none;spacingLeft=4;spacingRight=4;overflow=hidden;rotatable=0;points=[[0,0.5],[1,0.5]];portConstraint=eastwest;fontSize=20;labelBackgroundColor=#FFFFFF;fontColor=#000000;" parent="1" vertex="1">
                    <mxGeometry x="470" y="180" width="40" height="30" as="geometry"/>
                </mxCell>
                <mxCell id="56" value="1:N" style="text;strokeColor=none;fillColor=none;spacingLeft=4;spacingRight=4;overflow=hidden;rotatable=0;points=[[0,0.5],[1,0.5]];portConstraint=eastwest;fontSize=20;labelBackgroundColor=#FFFFFF;fontColor=#000000;" parent="1" vertex="1">
                    <mxGeometry x="310" y="150" width="40" height="30" as="geometry"/>
                </mxCell>
                <mxCell id="57" value="1" style="text;strokeColor=none;fillColor=none;spacingLeft=4;spacingRight=4;overflow=hidden;rotatable=0;points=[[0,0.5],[1,0.5]];portConstraint=eastwest;fontSize=20;labelBackgroundColor=#FFFFFF;fontColor=#000000;" parent="1" vertex="1">
                    <mxGeometry x="670" y="180" width="40" height="30" as="geometry"/>
                </mxCell>
                <mxCell id="58" value="*" style="text;strokeColor=none;fillColor=none;spacingLeft=4;spacingRight=4;overflow=hidden;rotatable=0;points=[[0,0.5],[1,0.5]];portConstraint=eastwest;fontSize=20;labelBackgroundColor=#FFFFFF;fontColor=#000000;" parent="1" vertex="1">
                    <mxGeometry x="590" y="480" width="40" height="30" as="geometry"/>
                </mxCell>
                <mxCell id="59" value="*" style="text;strokeColor=none;fillColor=none;spacingLeft=4;spacingRight=4;overflow=hidden;rotatable=0;points=[[0,0.5],[1,0.5]];portConstraint=eastwest;fontSize=20;labelBackgroundColor=#FFFFFF;fontColor=#000000;" parent="1" vertex="1">
                    <mxGeometry x="980" y="180" width="40" height="30" as="geometry"/>
                </mxCell>
                <mxCell id="60" value="1" style="text;strokeColor=none;fillColor=none;spacingLeft=4;spacingRight=4;overflow=hidden;rotatable=0;points=[[0,0.5],[1,0.5]];portConstraint=eastwest;fontSize=20;labelBackgroundColor=#FFFFFF;fontColor=#000000;" parent="1" vertex="1">
                    <mxGeometry x="590" y="250" width="40" height="30" as="geometry"/>
                </mxCell>
                <mxCell id="61" value="1:N" style="text;strokeColor=none;fillColor=none;spacingLeft=4;spacingRight=4;overflow=hidden;rotatable=0;points=[[0,0.5],[1,0.5]];portConstraint=eastwest;fontSize=20;labelBackgroundColor=#FFFFFF;fontColor=#000000;" parent="1" vertex="1">
                    <mxGeometry x="810" y="150" width="40" height="30" as="geometry"/>
                </mxCell>
                <mxCell id="62" value="1:N" style="text;strokeColor=none;fillColor=none;spacingLeft=4;spacingRight=4;overflow=hidden;rotatable=0;points=[[0,0.5],[1,0.5]];portConstraint=eastwest;fontSize=20;labelBackgroundColor=#FFFFFF;fontColor=#000000;" parent="1" vertex="1">
                    <mxGeometry x="470" y="360" width="40" height="30" as="geometry"/>
                </mxCell>
                <mxCell id="63" value="type" style="ellipse;whiteSpace=wrap;html=1;align=center;fontSize=15;fillColor=#0050ef;strokeColor=#001DBC;fontColor=#ffffff;" parent="1" vertex="1">
                    <mxGeometry x="1020" y="320" width="100" height="40" as="geometry"/>
                </mxCell>
                <mxCell id="64" value="email" style="ellipse;whiteSpace=wrap;html=1;align=center;fontStyle=4;fontSize=15;fillColor=#0050ef;strokeColor=#001DBC;fontColor=#ffffff;" parent="1" vertex="1">
                    <mxGeometry x="1020" y="80" width="100" height="40" as="geometry"/>
                </mxCell>
                <mxCell id="65" value="title" style="ellipse;whiteSpace=wrap;html=1;align=center;fontSize=15;fillColor=#0050ef;strokeColor=#001DBC;fontColor=#ffffff;" parent="1" vertex="1">
                    <mxGeometry x="720" y="100" width="100" height="40" as="geometry"/>
                </mxCell>
                <mxCell id="66" value="photo" style="ellipse;whiteSpace=wrap;html=1;align=center;fontSize=15;fillColor=#0050ef;strokeColor=#001DBC;fontColor=#ffffff;" parent="1" vertex="1">
                    <mxGeometry x="650" y="250" width="100" height="40" as="geometry"/>
                </mxCell>
                <mxCell id="67" value="organization" style="ellipse;whiteSpace=wrap;html=1;align=center;fontSize=15;fillColor=#0050ef;strokeColor=#001DBC;fontColor=#ffffff;" parent="1" vertex="1">
                    <mxGeometry x="410" y="250" width="100" height="40" as="geometry"/>
                </mxCell>
                <mxCell id="68" value="name" style="ellipse;whiteSpace=wrap;html=1;align=center;fontSize=15;fillColor=#0050ef;strokeColor=#001DBC;fontColor=#ffffff;" parent="1" vertex="1">
                    <mxGeometry x="360" y="100" width="100" height="40" as="geometry"/>
                </mxCell>
                <mxCell id="70" value="idcontacto" style="ellipse;whiteSpace=wrap;html=1;align=center;fontStyle=4;fontSize=15;fillColor=#0050ef;strokeColor=#001DBC;fontColor=#ffffff;" parent="1" vertex="1">
                    <mxGeometry x="600" y="80" width="100" height="40" as="geometry"/>
                </mxCell>
                <mxCell id="71" style="rounded=0;orthogonalLoop=1;jettySize=auto;html=1;strokeColor=#000000;strokeWidth=2;endArrow=none;endFill=0;fontSize=15;exitX=0.5;exitY=0;exitDx=0;exitDy=0;" edge="1" parent="1" target="72" source="3">
                    <mxGeometry relative="1" as="geometry">
                        <mxPoint x="130" y="70" as="targetPoint"/>
                        <mxPoint x="130" y="200" as="sourcePoint"/>
                    </mxGeometry>
                </mxCell>
                <mxCell id="72" value="fk_idcontacto" style="ellipse;whiteSpace=wrap;html=1;align=center;fontStyle=4;fontSize=15;fillColor=#0050ef;strokeColor=#001DBC;fontColor=#ffffff;" vertex="1" parent="1">
                    <mxGeometry x="150" y="80" width="100" height="40" as="geometry"/>
                </mxCell>
                <mxCell id="73" style="rounded=0;orthogonalLoop=1;jettySize=auto;html=1;strokeColor=#000000;strokeWidth=2;endArrow=none;endFill=0;fontSize=15;" edge="1" parent="1" target="74" source="5">
                    <mxGeometry relative="1" as="geometry">
                        <mxPoint x="1120" y="70" as="targetPoint"/>
                        <mxPoint x="1120" y="200" as="sourcePoint"/>
                    </mxGeometry>
                </mxCell>
                <mxCell id="74" value="fk_idcontacto" style="ellipse;whiteSpace=wrap;html=1;align=center;fontStyle=4;fontSize=15;fillColor=#0050ef;strokeColor=#001DBC;fontColor=#ffffff;" vertex="1" parent="1">
                    <mxGeometry x="1130" y="100" width="100" height="40" as="geometry"/>
                </mxCell>
                <mxCell id="75" style="rounded=0;orthogonalLoop=1;jettySize=auto;html=1;strokeColor=#000000;strokeWidth=2;endArrow=none;endFill=0;fontSize=15;" edge="1" parent="1" target="76" source="4">
                    <mxGeometry relative="1" as="geometry">
                        <mxPoint x="510" y="610" as="targetPoint"/>
                        <mxPoint x="578" y="540" as="sourcePoint"/>
                    </mxGeometry>
                </mxCell>
                <mxCell id="76" value="fk_idcontacto" style="ellipse;whiteSpace=wrap;html=1;align=center;fontStyle=4;fontSize=15;fillColor=#0050ef;strokeColor=#001DBC;fontColor=#ffffff;" vertex="1" parent="1">
                    <mxGeometry x="430" y="460" width="100" height="40" as="geometry"/>
                </mxCell>
            </root>
        </mxGraphModel>
    </diagram>
</mxfile>